<?xml version="1.0" encoding="utf-8"?>
<!-- Generator: Adobe Illustrator 19.1.0, SVG Export Plug-In . SVG Version: 6.00 Build 0)  -->
<!DOCTYPE svg PUBLIC "-//W3C//DTD SVG 1.1//EN" "http://www.w3.org/Graphics/SVG/1.1/DTD/svg11.dtd">
<svg version="1.1" id="Layer_1" xmlns="http://www.w3.org/2000/svg" xmlns:xlink="http://www.w3.org/1999/xlink" x="0px" y="0px"
	 viewBox="0 0 720.3 291.6" enable-background="new 0 0 720.3 291.6" xml:space="preserve">
<g>
	<g>
		<path fill="#5E6E66" d="M208.1,216.5c0,2.6-0.2,4.9-0.7,6.7c-0.5,1.8-1.3,3.4-2.6,4.6c-1.1,1-2.4,1.8-4.1,2.4
			c-1.7,0.6-3.6,0.9-5.9,0.9c-4.4,0-7.7-1.1-9.9-3.4c-1.2-1.2-2.1-2.7-2.6-4.4c-0.5-1.7-0.7-3.9-0.7-6.6h8.1c0,1.4,0.1,2.5,0.3,3.4
			c0.2,0.9,0.6,1.7,1.2,2.3c0.4,0.4,0.9,0.7,1.5,1c0.6,0.3,1.4,0.4,2.3,0.4c1.8,0,3.1-0.5,3.9-1.4c0.5-0.6,0.9-1.4,1.1-2.3
			c0.2-0.9,0.3-2,0.3-3.4c0-1.3-0.1-2.5-0.2-3.4c-0.1-0.9-0.4-1.7-0.7-2.3c-0.4-0.6-0.9-1.1-1.5-1.5c-0.6-0.4-1.4-0.8-2.4-1.2
			l-6.1-2.5c-1.3-0.5-2.4-1.1-3.3-1.8c-0.9-0.7-1.6-1.5-2.2-2.5c-0.6-1-1-2.2-1.2-3.6c-0.3-1.4-0.4-3.1-0.4-5c0-2.3,0.3-4.4,1-6.2
			c0.7-1.8,1.7-3.4,3.1-4.6c1.1-1,2.4-1.7,3.9-2.3c1.5-0.6,3.1-0.8,4.9-0.8c4,0,7.1,1,9.2,3.1c1.3,1.3,2.3,2.9,2.8,4.7
			c0.5,1.8,0.8,4,0.8,6.4h-8.1c0-1.2-0.1-2.2-0.2-3.1c-0.1-0.9-0.5-1.7-1-2.4c-0.8-1-2-1.5-3.6-1.5c-0.8,0-1.5,0.1-2.1,0.4
			c-0.6,0.3-1,0.6-1.4,1c-0.9,1.1-1.4,2.7-1.4,5c0,1.1,0,1.9,0.1,2.7c0.1,0.7,0.3,1.3,0.6,1.8c0.3,0.5,0.7,0.9,1.3,1.3
			c0.6,0.4,1.3,0.7,2.2,1.1l6,2.4c1.5,0.6,2.8,1.3,3.8,2.1c1,0.8,1.8,1.7,2.4,2.8c0.6,1.1,1,2.4,1.2,4
			C207.9,212.5,208.1,214.3,208.1,216.5z"/>
		<path fill="#5E6E66" d="M241.2,195c0,5.4-1,9.3-3.1,11.8c-2.1,2.5-5.4,3.7-10.1,3.7h-4.8v20.1h-8.1v-51.3H228
			c4.7,0,8,1.3,10.1,3.8C240.2,185.7,241.2,189.6,241.2,195z M233.1,195c0-2.6-0.4-4.6-1.1-6.1c-0.7-1.5-2.2-2.2-4.3-2.2h-4.5v16.6
			h4.5c2.2,0,3.6-0.7,4.3-2.2C232.8,199.6,233.1,197.6,233.1,195z"/>
		<path fill="#5E6E66" d="M273.8,205c0,3,0,5.7-0.1,8c-0.1,2.3-0.2,4.3-0.5,6c-0.2,1.7-0.6,3.2-1.1,4.5c-0.5,1.2-1.2,2.4-2.1,3.4
			c-1.1,1.2-2.4,2.3-4,3.1c-1.6,0.8-3.6,1.3-6,1.3c-2.4,0-4.4-0.4-6-1.3c-1.6-0.8-2.9-1.9-4-3.1c-0.9-1-1.5-2.1-2-3.4
			c-0.5-1.3-0.9-2.8-1.1-4.5c-0.3-1.7-0.4-3.7-0.5-6s-0.1-4.9-0.1-8c0-3,0-5.7,0.1-8s0.2-4.3,0.5-6c0.3-1.7,0.6-3.2,1.1-4.5
			c0.5-1.3,1.2-2.4,2-3.4c1.1-1.2,2.4-2.3,4-3.1c1.6-0.8,3.6-1.3,6-1.3c2.4,0,4.4,0.4,6,1.3c1.6,0.8,2.9,1.9,4,3.1
			c0.9,1,1.5,2.1,2.1,3.4c0.5,1.2,0.9,2.7,1.1,4.5c0.2,1.7,0.4,3.7,0.5,6C273.8,199.4,273.8,202,273.8,205z M265.7,205
			c0-4.7-0.1-8.4-0.3-11.1c-0.2-2.7-0.7-4.7-1.4-5.9c-0.4-0.6-0.9-1-1.5-1.4c-0.6-0.4-1.4-0.5-2.4-0.5c-1,0-1.7,0.2-2.3,0.5
			c-0.6,0.4-1.1,0.8-1.5,1.4c-0.8,1.2-1.3,3.2-1.5,5.9c-0.2,2.7-0.3,6.4-0.3,11.1s0.1,8.4,0.3,11.1c0.2,2.7,0.7,4.7,1.5,5.9
			c0.4,0.6,0.9,1,1.5,1.4c0.6,0.4,1.4,0.5,2.3,0.5c1,0,1.8-0.2,2.4-0.5c0.6-0.4,1.1-0.8,1.5-1.4c0.8-1.2,1.2-3.2,1.4-5.9
			C265.6,213.4,265.7,209.7,265.7,205z"/>
		<path fill="#5E6E66" d="M300.4,230.7l-6.7-21h-4.5v21h-8.1v-51.3h13c4.7,0,8.1,1.2,10.1,3.6c2,2.4,3,6.2,3,11.6
			c0,3.2-0.4,5.9-1.2,8.1c-0.8,2.3-2.4,4-4.8,5.3l7.6,22.7H300.4z M299.1,194.5c0-1.1-0.1-2.1-0.2-3c-0.1-1-0.3-1.8-0.7-2.5
			c-0.3-0.7-0.8-1.3-1.5-1.7c-0.7-0.4-1.5-0.6-2.6-0.6h-5v15.7h5c1.1,0,1.9-0.2,2.6-0.6c0.7-0.4,1.2-1,1.5-1.7
			c0.3-0.7,0.6-1.6,0.7-2.5C299,196.6,299.1,195.6,299.1,194.5z"/>
		<path fill="#5E6E66" d="M327.5,186.7v44h-8.1v-44h-8.6v-7.3h25.3v7.3H327.5z"/>
		<path fill="#5E6E66" d="M366.7,216.5c0,2.6-0.2,4.9-0.7,6.7c-0.5,1.8-1.3,3.4-2.6,4.6c-1.1,1-2.4,1.8-4.1,2.4
			c-1.7,0.6-3.6,0.9-5.9,0.9c-4.4,0-7.7-1.1-9.9-3.4c-1.2-1.2-2.1-2.7-2.6-4.4c-0.5-1.7-0.7-3.9-0.7-6.6h8.1c0,1.4,0.1,2.5,0.3,3.4
			c0.2,0.9,0.6,1.7,1.2,2.3c0.4,0.4,0.9,0.7,1.5,1c0.6,0.3,1.4,0.4,2.3,0.4c1.8,0,3.1-0.5,3.9-1.4c0.5-0.6,0.9-1.4,1.1-2.3
			c0.2-0.9,0.3-2,0.3-3.4c0-1.3-0.1-2.5-0.2-3.4c-0.1-0.9-0.4-1.7-0.7-2.3c-0.4-0.6-0.9-1.1-1.5-1.5c-0.6-0.4-1.4-0.8-2.4-1.2
			l-6.1-2.5c-1.3-0.5-2.4-1.1-3.3-1.8c-0.9-0.7-1.6-1.5-2.2-2.5c-0.6-1-1-2.2-1.2-3.6c-0.3-1.4-0.4-3.1-0.4-5c0-2.3,0.3-4.4,1-6.2
			c0.7-1.8,1.7-3.4,3.1-4.6c1.1-1,2.4-1.7,3.9-2.3c1.5-0.6,3.1-0.8,4.9-0.8c4,0,7.1,1,9.2,3.1c1.3,1.3,2.3,2.9,2.8,4.7
			c0.5,1.8,0.8,4,0.8,6.4h-8.1c0-1.2-0.1-2.2-0.2-3.1c-0.1-0.9-0.5-1.7-1-2.4c-0.8-1-2-1.5-3.6-1.5c-0.8,0-1.5,0.1-2.1,0.4
			c-0.6,0.3-1,0.6-1.4,1c-0.9,1.1-1.4,2.7-1.4,5c0,1.1,0,1.9,0.1,2.7c0.1,0.7,0.3,1.3,0.6,1.8c0.3,0.5,0.7,0.9,1.3,1.3
			c0.6,0.4,1.3,0.7,2.2,1.1l6,2.4c1.5,0.6,2.8,1.3,3.8,2.1c1,0.8,1.8,1.7,2.4,2.8c0.6,1.1,1,2.4,1.2,4
			C366.6,212.5,366.7,214.3,366.7,216.5z"/>
		<path fill="#5E6E66" d="M413,230.7v-32l-7,21h-4.5l-6.8-20.7v31.6h-8.1v-51.3h7.3l9.9,26.9l9.9-26.9h7.3v51.3H413z"/>
		<path fill="#5E6E66" d="M429.7,230.7v-51.3h8.1v51.3H429.7z"/>
		<path fill="#5E6E66" d="M466.6,230.7l-12.1-30.5v30.5h-8.1v-51.3h7.2l12,30.5v-30.5h8.1v51.3H466.6z"/>
		<path fill="#5E6E66" d="M502.5,230.7l-12.1-30.5v30.5h-8.1v-51.3h7.2l12,30.5v-30.5h8.1v51.3H502.5z"/>
		<path fill="#5E6E66" d="M518.3,230.7v-51.3h21.5v7.3h-13.5v14.5h11.6v7.3h-11.6v14.9h13.5v7.3H518.3z"/>
		<path fill="#5E6E66" d="M567.3,230.7l-2.1-10.2h-11.9l-2,10.2h-8.5l12.6-51.3h7.8l12.5,51.3H567.3z M559.3,191.8l-4.4,21.5h8.8
			L559.3,191.8z"/>
		<path fill="#5E6E66" d="M606.5,195c0,5.4-1,9.3-3.1,11.8c-2.1,2.5-5.4,3.7-10.1,3.7h-4.8v20.1h-8.1v-51.3h12.9
			c4.7,0,8,1.3,10.1,3.8C605.5,185.7,606.5,189.6,606.5,195z M598.5,195c0-2.6-0.4-4.6-1.1-6.1c-0.7-1.5-2.2-2.2-4.3-2.2h-4.5v16.6
			h4.5c2.2,0,3.6-0.7,4.3-2.2C598.1,199.6,598.5,197.6,598.5,195z"/>
		<path fill="#5E6E66" d="M639.2,205c0,3,0,5.7-0.1,8c-0.1,2.3-0.2,4.3-0.5,6c-0.2,1.7-0.6,3.2-1.1,4.5s-1.2,2.4-2.1,3.4
			c-1.1,1.2-2.4,2.3-4,3.1c-1.6,0.8-3.6,1.3-6,1.3c-2.4,0-4.4-0.4-6-1.3c-1.6-0.8-2.9-1.9-4-3.1c-0.9-1-1.5-2.1-2-3.4
			c-0.5-1.3-0.9-2.8-1.1-4.5c-0.3-1.7-0.4-3.7-0.5-6c-0.1-2.3-0.1-4.9-0.1-8c0-3,0-5.7,0.1-8c0.1-2.3,0.2-4.3,0.5-6
			c0.3-1.7,0.6-3.2,1.1-4.5c0.5-1.3,1.2-2.4,2-3.4c1.1-1.2,2.4-2.3,4-3.1c1.6-0.8,3.6-1.3,6-1.3c2.4,0,4.4,0.4,6,1.3
			c1.6,0.8,2.9,1.9,4,3.1c0.9,1,1.5,2.1,2.1,3.4c0.5,1.2,0.9,2.7,1.1,4.5c0.2,1.7,0.4,3.7,0.5,6C639.1,199.4,639.2,202,639.2,205z
			 M631.1,205c0-4.7-0.1-8.4-0.3-11.1c-0.2-2.7-0.7-4.7-1.4-5.9c-0.4-0.6-0.9-1-1.5-1.4c-0.6-0.4-1.4-0.5-2.4-0.5
			c-1,0-1.7,0.2-2.3,0.5c-0.6,0.4-1.1,0.8-1.5,1.4c-0.8,1.2-1.3,3.2-1.5,5.9c-0.2,2.7-0.3,6.4-0.3,11.1s0.1,8.4,0.3,11.1
			c0.2,2.7,0.7,4.7,1.5,5.9c0.4,0.6,0.9,1,1.5,1.4c0.6,0.4,1.4,0.5,2.3,0.5c1,0,1.8-0.2,2.4-0.5c0.6-0.4,1.1-0.8,1.5-1.4
			c0.8-1.2,1.2-3.2,1.4-5.9C631,213.4,631.1,209.7,631.1,205z"/>
		<path fill="#5E6E66" d="M646.4,230.7v-51.3h8.1v44H668v7.3H646.4z"/>
		<path fill="#5E6E66" d="M674,230.7v-51.3h8.1v51.3H674z"/>
		<path fill="#5E6E66" d="M715.5,216.5c0,2.6-0.2,4.9-0.7,6.7c-0.5,1.8-1.3,3.4-2.6,4.6c-1.1,1-2.4,1.8-4.1,2.4
			c-1.7,0.6-3.6,0.9-5.9,0.9c-4.4,0-7.7-1.1-9.9-3.4c-1.2-1.2-2.1-2.7-2.6-4.4c-0.5-1.7-0.7-3.9-0.7-6.6h8.1c0,1.4,0.1,2.5,0.3,3.4
			c0.2,0.9,0.6,1.7,1.2,2.3c0.4,0.4,0.9,0.7,1.5,1c0.6,0.3,1.4,0.4,2.3,0.4c1.8,0,3.1-0.5,3.9-1.4c0.5-0.6,0.9-1.4,1.1-2.3
			c0.2-0.9,0.3-2,0.3-3.4c0-1.3-0.1-2.5-0.2-3.4s-0.4-1.7-0.7-2.3c-0.4-0.6-0.9-1.1-1.5-1.5c-0.6-0.4-1.4-0.8-2.4-1.2l-6.1-2.5
			c-1.3-0.5-2.4-1.1-3.3-1.8c-0.9-0.7-1.6-1.5-2.2-2.5c-0.6-1-1-2.2-1.2-3.6s-0.4-3.1-0.4-5c0-2.3,0.3-4.4,1-6.2
			c0.7-1.8,1.7-3.4,3.1-4.6c1.1-1,2.4-1.7,3.9-2.3c1.5-0.6,3.1-0.8,4.9-0.8c4,0,7.1,1,9.2,3.1c1.3,1.3,2.3,2.9,2.8,4.7
			s0.8,4,0.8,6.4H707c0-1.2-0.1-2.2-0.2-3.1c-0.1-0.9-0.5-1.7-1-2.4c-0.8-1-2-1.5-3.6-1.5c-0.8,0-1.5,0.1-2.1,0.4
			c-0.6,0.3-1,0.6-1.4,1c-0.9,1.1-1.4,2.7-1.4,5c0,1.1,0,1.9,0.1,2.7c0.1,0.7,0.3,1.3,0.6,1.8c0.3,0.5,0.7,0.9,1.3,1.3
			c0.6,0.4,1.3,0.7,2.2,1.1l6,2.4c1.5,0.6,2.8,1.3,3.8,2.1c1,0.8,1.8,1.7,2.4,2.8c0.6,1.1,1,2.4,1.2,4
			C715.3,212.5,715.5,214.3,715.5,216.5z"/>
	</g>
	<g>
		<path fill="#00BCE4" d="M260.2,59.8c2,5.4,3.1,11.3,3.1,17.5c0,27.8-22.6,50.4-50.4,50.4c-27.8,0-50.4-22.6-50.4-50.4
			c0-6.1,1.1-12,3.1-17.5c-7.8-5.2-14.6-11.6-20.3-19c-5.9,10.9-9.2,23.3-9.2,36.5l0,76.8l76.8,0c42.4,0,76.8-34.4,76.8-76.8
			c0-13.2-3.3-25.6-9.2-36.5C274.9,48.2,268,54.6,260.2,59.8z"/>
		<rect x="56.4" y="237.5" fill="#5E6E66" width="50.1" height="4.8"/>
		<rect x="96.8" y="231" fill="#5E6E66" width="4.8" height="17.8"/>
		<rect x="85" y="231" fill="#5E6E66" width="4.8" height="17.8"/>
		<rect x="73.2" y="231" fill="#5E6E66" width="4.8" height="17.8"/>
		<rect x="61.3" y="231" fill="#5E6E66" width="4.8" height="17.8"/>
		<path fill="#5E6E66" d="M81.9,267.7c-21.5,0-42.6-8.8-57.8-24.2c-1.1,1.4-2.2,2.9-3.2,4.4c16.4,16.2,38,25.2,61,25.2
			c22.9,0,44.5-8.9,60.8-25c-1.1-1.4-2.2-2.9-3.3-4.3C124.2,259,103.3,267.7,81.9,267.7z"/>
		<path fill="#5E6E66" d="M184.4,41.5c0.3,0.5,0.5,1.2,0.8,1.4c1.1,0.4,2.3,0.9,3.4,0.7c3.8-0.5,7.7-1,11.5-1.8
			c6.8-1.5,13.3-4.1,20.3-4.6c0.4,0,0.9-0.8,0.9-1.3c0-0.7-0.4-1.5-0.8-2.1c-4.8-7.7-9.6-15.4-14.5-23c-1.7-2.7-3.5-3.2-6.3-1.7
			c-7.2,3.7-14.3,7.5-21.4,11.3c-1,0.5-2,1.3-2.7,2.2c-1.3,1.7-0.5,3.4,1.6,3.4c1.4,0,2.8-0.4,4.1-0.8c5.4-1.9,10.7-4,16-6
			c1.6-0.6,3-0.6,3.8,1c1.4,2.9,2.6,5.8,3.9,8.8C198.2,33.2,191.2,37.4,184.4,41.5z M164.6,42.8c0.4,0.8,0.5,1.2,0.7,1.5
			c3.9,6.3,9.4,10.6,16.5,12.4c9.8,2.6,19.7,1.9,29.1-1.4c10.6-3.7,21.1-4.8,32.1-3.6c3.5,0.4,7,0.7,10.5,1
			c-0.1-0.1-0.1-0.3-0.2-0.3c-8.3-6.3-17.5-9.7-28-8.1c-5.9,0.9-11.7,2.4-17.5,3.9c-9.7,2.5-19.5,3.3-29.3,0.8
			C173.7,47.8,169.2,45.8,164.6,42.8z M231.9,35.9c5,0,9.2-4.1,9.1-9.2c0-5-4.2-9.1-9.2-9.1c-5,0-9.2,4.1-9.1,9.2
			C222.7,31.8,226.9,35.9,231.9,35.9z"/>
		<path fill="#C1CD23" d="M34.5,223.5c-2-5.4-3.1-11.3-3.1-17.5c0-27.8,22.6-50.4,50.4-50.4c27.8,0,50.4,22.6,50.4,50.4
			c0,6.1-1.1,12-3.1,17.5c7.8,5.2,14.6,11.6,20.3,19c5.9-10.9,9.2-23.3,9.2-36.5v-76.8H81.8C39.4,129.2,5,163.6,5,206
			c0,13.2,3.3,25.6,9.2,36.5C19.8,235.1,26.7,228.6,34.5,223.5z"/>
		<path fill="#C1CD23" d="M81.8,155.6c-27.8,0-50.4,22.6-50.4,50.4c0,6.1,1.1,12,3.1,17.5c13.5-9,29.8-14.3,47.3-14.3
			c17.5,0,33.8,5.3,47.3,14.3c2-5.4,3.1-11.3,3.1-17.5C132.2,178.2,109.6,155.6,81.8,155.6z"/>
		<path opacity="0.32" fill="#FFFFFF" d="M81.8,155.6c-27.8,0-50.4,22.6-50.4,50.4c0,6.1,1.1,12,3.1,17.5
			c13.5-9,29.8-14.3,47.3-14.3c17.5,0,33.8,5.3,47.3,14.3c2-5.4,3.1-11.3,3.1-17.5C132.2,178.2,109.6,155.6,81.8,155.6z"/>
		<g>
			<path fill="#00BCE4" d="M212.9,127.7c27.8,0,50.4-22.6,50.4-50.4c0-6.1-1.1-12-3.1-17.5c-13.5,9-29.8,14.3-47.3,14.3
				c-17.5,0-33.8-5.3-47.3-14.3c-2,5.4-3.1,11.3-3.1,17.5C162.5,105.1,185.1,127.7,212.9,127.7z"/>
			<path opacity="0.56" fill="#FFFFFF" d="M212.9,127.7c27.8,0,50.4-22.6,50.4-50.4c0-6.1-1.1-12-3.1-17.5
				c-13.5,9-29.8,14.3-47.3,14.3c-17.5,0-33.8-5.3-47.3-14.3c-2,5.4-3.1,11.3-3.1,17.5C162.5,105.1,185.1,127.7,212.9,127.7z"/>
		</g>
	</g>
	<g>
		<g>
			<path fill="#5E6E66" d="M203.7,252.8c0,1.3-0.2,2.5-0.6,3.5c-0.4,1-1,1.9-1.8,2.7c-0.8,0.7-1.7,1.3-2.8,1.7
				c-1.1,0.4-2.3,0.6-3.6,0.6h-7.6v11.8h-3.1v-28.7h10.7c1.3,0,2.5,0.2,3.6,0.6c1.1,0.4,2,1,2.8,1.7c0.8,0.7,1.4,1.6,1.8,2.6
				C203.5,250.4,203.7,251.5,203.7,252.8z M200.7,252.8c0-1.9-0.6-3.3-1.7-4.3c-1.1-0.9-2.6-1.4-4.4-1.4h-7.4v11.4h7.4
				c1.8,0,3.3-0.5,4.4-1.4C200.1,256.2,200.7,254.7,200.7,252.8z"/>
			<path fill="#5E6E66" d="M252.3,273.1h-2.7l-5.2-15.4l-5.2,15.4h-2.7l-6.3-19.8h3.1l4.6,15.9l5.2-15.9h2.5l5.2,15.9l4.5-15.9h3.1
				L252.3,273.1z"/>
			<path fill="#5E6E66" d="M264.1,263.9c0,2.2,0.5,3.9,1.5,5.1c1,1.2,2.4,1.8,4.4,1.8c1.2,0,2.1-0.2,2.9-0.5
				c0.8-0.4,1.5-0.9,2.3-1.7l2,1.7c-0.5,0.5-1,1-1.5,1.3c-0.5,0.4-1,0.7-1.6,0.9s-1.2,0.4-1.9,0.6c-0.7,0.1-1.4,0.2-2.3,0.2
				c-1.3,0-2.5-0.2-3.6-0.6c-1.1-0.4-2-1-2.7-1.9c-0.8-0.8-1.3-1.9-1.7-3.2c-0.4-1.3-0.6-2.8-0.6-4.5c0-3.3,0.7-5.8,2.2-7.5
				c1.5-1.8,3.4-2.6,6-2.6c2.6,0,4.6,0.9,6,2.6c1.4,1.7,2.1,4.1,2.1,7.1v1.3H264.1z M274.6,261.8c0-0.4-0.1-0.8-0.1-1
				c0-0.3-0.1-0.6-0.1-0.8c0-0.2-0.1-0.5-0.2-0.7c-0.1-0.2-0.2-0.5-0.3-0.7c-0.4-0.9-1-1.6-1.8-2.2c-0.8-0.5-1.7-0.8-2.8-0.8
				c-1.1,0-2,0.3-2.8,0.8c-0.8,0.5-1.4,1.3-1.8,2.2c-0.1,0.3-0.2,0.5-0.3,0.7c-0.1,0.2-0.1,0.5-0.2,0.7c0,0.2-0.1,0.5-0.1,0.8
				c0,0.3,0,0.6-0.1,1H274.6z"/>
			<path fill="#5E6E66" d="M294.7,257c-0.5-0.5-1-0.9-1.5-1.1c-0.5-0.2-1.1-0.3-1.9-0.3c-0.7,0-1.4,0.1-2,0.4
				c-0.6,0.3-1.1,0.6-1.5,1.1c-0.4,0.5-0.7,1-0.9,1.7c-0.2,0.6-0.3,1.3-0.3,2.1v12.2h-2.9v-19.8h2.9v2.4c0.5-0.8,1.3-1.5,2.3-2
				c1-0.5,2.1-0.7,3.2-0.7c0.9,0,1.8,0.1,2.6,0.4c0.8,0.3,1.5,0.8,2.2,1.5L294.7,257z"/>
			<path fill="#5E6E66" d="M301.2,263.9c0,2.2,0.5,3.9,1.5,5.1c1,1.2,2.4,1.8,4.4,1.8c1.2,0,2.1-0.2,2.9-0.5
				c0.8-0.4,1.5-0.9,2.3-1.7l2,1.7c-0.5,0.5-1,1-1.5,1.3c-0.5,0.4-1,0.7-1.6,0.9c-0.6,0.3-1.2,0.4-1.9,0.6c-0.7,0.1-1.4,0.2-2.3,0.2
				c-1.3,0-2.5-0.2-3.6-0.6c-1.1-0.4-2-1-2.7-1.9c-0.8-0.8-1.3-1.9-1.7-3.2c-0.4-1.3-0.6-2.8-0.6-4.5c0-3.3,0.7-5.8,2.2-7.5
				c1.5-1.8,3.4-2.6,6-2.6c2.6,0,4.6,0.9,6,2.6c1.4,1.7,2.1,4.1,2.1,7.1v1.3H301.2z M311.7,261.8c0-0.4-0.1-0.8-0.1-1
				c0-0.3-0.1-0.6-0.1-0.8c0-0.2-0.1-0.5-0.2-0.7c-0.1-0.2-0.2-0.5-0.3-0.7c-0.4-0.9-1-1.6-1.8-2.2c-0.8-0.5-1.7-0.8-2.8-0.8
				c-1.1,0-2,0.3-2.8,0.8c-0.8,0.5-1.4,1.3-1.8,2.2c-0.1,0.3-0.2,0.5-0.3,0.7c-0.1,0.2-0.1,0.5-0.2,0.7c0,0.2-0.1,0.5-0.1,0.8
				c0,0.3,0,0.6-0.1,1H311.7z"/>
			<path fill="#5E6E66" d="M332.6,273.1v-2.4c-0.8,1-1.7,1.7-2.6,2.1c-0.9,0.3-1.9,0.5-3,0.5c-1,0-1.9-0.2-2.8-0.5
				c-0.8-0.3-1.5-0.7-2.1-1.3c-1-1-1.6-2.3-2-3.8c-0.3-1.5-0.5-3-0.5-4.7c0-0.8,0-1.6,0.1-2.4s0.2-1.6,0.4-2.3
				c0.2-0.7,0.4-1.4,0.7-2.1s0.7-1.2,1.2-1.7c0.5-0.5,1.2-1,2.1-1.3c0.8-0.3,1.8-0.5,2.8-0.5c1.1,0,2.1,0.2,3,0.5
				c0.9,0.3,1.7,1,2.6,2v-11.2h2.9v28.7H332.6z M332.5,263.2c0-1-0.1-1.9-0.2-2.8c-0.1-0.9-0.3-1.7-0.7-2.4
				c-0.3-0.7-0.9-1.3-1.5-1.7c-0.7-0.4-1.5-0.6-2.6-0.6c-1.1,0-2,0.2-2.6,0.6c-0.6,0.4-1.1,1-1.5,1.7c-0.4,0.7-0.6,1.5-0.7,2.4
				s-0.2,1.9-0.2,2.8c0,1,0.1,1.9,0.2,2.8c0.1,0.9,0.3,1.7,0.7,2.4c0.4,0.7,0.9,1.3,1.5,1.7c0.6,0.4,1.5,0.6,2.6,0.6
				c1.1,0,1.9-0.2,2.6-0.6c0.7-0.4,1.2-1,1.5-1.7c0.3-0.7,0.6-1.5,0.7-2.4C332.5,265.1,332.5,264.1,332.5,263.2z"/>
			<path fill="#5E6E66" d="M368.5,263.2c0,1.6-0.2,3.2-0.5,4.7c-0.3,1.5-1,2.7-2,3.8c-0.5,0.5-1.2,1-2.1,1.3
				c-0.8,0.3-1.8,0.5-2.8,0.5c-1.1,0-2.1-0.2-3-0.5c-0.9-0.3-1.7-1-2.6-2.1v2.4h-2.9v-28.7h2.9v11.2c0.8-1,1.7-1.7,2.6-2
				c0.9-0.3,1.9-0.5,3-0.5c1,0,1.9,0.2,2.8,0.5c0.8,0.3,1.5,0.7,2.1,1.3c0.5,0.5,0.9,1,1.2,1.7s0.6,1.3,0.7,2.1
				c0.2,0.7,0.3,1.5,0.4,2.3C368.5,261.6,368.5,262.4,368.5,263.2z M365.6,263.2c0-1-0.1-1.9-0.2-2.8c-0.1-0.9-0.3-1.7-0.7-2.4
				c-0.3-0.7-0.9-1.3-1.5-1.7c-0.7-0.4-1.5-0.6-2.6-0.6c-1.1,0-2,0.2-2.6,0.6c-0.6,0.4-1.1,1-1.5,1.7c-0.4,0.7-0.6,1.5-0.7,2.4
				c-0.1,0.9-0.2,1.9-0.2,2.8c0,1,0.1,1.9,0.2,2.8c0.1,0.9,0.3,1.7,0.7,2.4c0.4,0.7,0.9,1.3,1.5,1.7c0.6,0.4,1.5,0.6,2.6,0.6
				c1.1,0,1.9-0.2,2.6-0.6c0.7-0.4,1.2-1,1.5-1.7c0.3-0.7,0.6-1.5,0.7-2.4C365.5,265.1,365.6,264.1,365.6,263.2z"/>
			<path fill="#5E6E66" d="M379.6,277.9c-0.4,1-0.8,1.8-1.4,2.3c-0.5,0.5-1.1,0.9-1.8,1.1c-0.7,0.2-1.4,0.3-2.1,0.3h-1.3V279h0.9
				c1,0,1.7-0.2,2.1-0.5c0.4-0.4,0.8-1,1.1-1.9l1.4-3.9l-7.1-19.4h3.1l5.4,15.9l5.4-15.9h3.1L379.6,277.9z"/>
			<path fill="#5E6E66" d="M424.8,273.1v-21.8l-7.9,17.3h-2.6l-8-17.3v21.8h-3.1v-28.7h3.1l9.4,20.4l9.1-20.4h3.1v28.7H424.8z"/>
			<path fill="#5E6E66" d="M437.5,263.9c0,2.2,0.5,3.9,1.5,5.1c1,1.2,2.4,1.8,4.4,1.8c1.2,0,2.1-0.2,2.9-0.5
				c0.8-0.4,1.5-0.9,2.3-1.7l2,1.7c-0.5,0.5-1,1-1.5,1.3c-0.5,0.4-1,0.7-1.6,0.9c-0.6,0.3-1.2,0.4-1.9,0.6c-0.7,0.1-1.4,0.2-2.3,0.2
				c-1.3,0-2.5-0.2-3.6-0.6c-1.1-0.4-2-1-2.7-1.9c-0.8-0.8-1.3-1.9-1.7-3.2c-0.4-1.3-0.6-2.8-0.6-4.5c0-3.3,0.7-5.8,2.2-7.5
				c1.5-1.8,3.4-2.6,6-2.6c2.6,0,4.6,0.9,6,2.6c1.4,1.7,2.1,4.1,2.1,7.1v1.3H437.5z M448,261.8c0-0.4-0.1-0.8-0.1-1
				c0-0.3-0.1-0.6-0.1-0.8c0-0.2-0.1-0.5-0.2-0.7c-0.1-0.2-0.2-0.5-0.3-0.7c-0.4-0.9-1-1.6-1.8-2.2c-0.8-0.5-1.7-0.8-2.8-0.8
				s-2,0.3-2.8,0.8c-0.8,0.5-1.4,1.3-1.8,2.2c-0.1,0.3-0.2,0.5-0.3,0.7c-0.1,0.2-0.1,0.5-0.2,0.7c0,0.2-0.1,0.5-0.1,0.8
				c0,0.3,0,0.6-0.1,1H448z"/>
			<path fill="#5E6E66" d="M458.8,263.9c0,2.2,0.5,3.9,1.5,5.1c1,1.2,2.4,1.8,4.4,1.8c1.2,0,2.1-0.2,2.9-0.5
				c0.8-0.4,1.5-0.9,2.3-1.7l2,1.7c-0.5,0.5-1,1-1.5,1.3c-0.5,0.4-1,0.7-1.6,0.9c-0.6,0.3-1.2,0.4-1.9,0.6c-0.7,0.1-1.4,0.2-2.3,0.2
				c-1.3,0-2.5-0.2-3.6-0.6c-1.1-0.4-2-1-2.7-1.9c-0.8-0.8-1.3-1.9-1.7-3.2c-0.4-1.3-0.6-2.8-0.6-4.5c0-3.3,0.7-5.8,2.2-7.5
				c1.5-1.8,3.4-2.6,6-2.6c2.6,0,4.6,0.9,6,2.6c1.4,1.7,2.1,4.1,2.1,7.1v1.3H458.8z M469.4,261.8c0-0.4-0.1-0.8-0.1-1
				c0-0.3-0.1-0.6-0.1-0.8c0-0.2-0.1-0.5-0.2-0.7c-0.1-0.2-0.2-0.5-0.3-0.7c-0.4-0.9-1-1.6-1.8-2.2c-0.8-0.5-1.7-0.8-2.8-0.8
				s-2,0.3-2.8,0.8c-0.8,0.5-1.4,1.3-1.8,2.2c-0.1,0.3-0.2,0.5-0.3,0.7c-0.1,0.2-0.1,0.5-0.2,0.7c0,0.2-0.1,0.5-0.1,0.8
				c0,0.3,0,0.6-0.1,1H469.4z"/>
			<path fill="#5E6E66" d="M484,273.1c-0.9,0-1.6-0.1-2.2-0.4c-0.6-0.3-1.2-0.7-1.6-1.1c-0.4-0.5-0.7-1-0.9-1.7
				c-0.2-0.6-0.3-1.3-0.3-2.1v-12.3h-2.5v-2.2h2.5v-6.1h2.9v6.1h4.2v2.2h-4.2v12.2c0,0.9,0.2,1.6,0.6,2.1c0.4,0.5,1.1,0.8,2.1,0.8
				h1.5v2.5H484z"/>
			<path fill="#5E6E66" d="M523.9,273.1v-21.8l-7.9,17.3h-2.6l-8-17.3v21.8h-3.1v-28.7h3.1l9.4,20.4l9.1-20.4h3.1v28.7H523.9z"/>
			<path fill="#5E6E66" d="M534.6,247.6v-3.3h3.3v3.3H534.6z M534.7,273.1v-19.8h2.9v19.8H534.7z"/>
			<path fill="#5E6E66" d="M557.6,273.1v-12.2c0-1.8-0.4-3.1-1.3-4c-0.9-0.9-2.1-1.3-3.6-1.3c-1.5,0-2.7,0.4-3.6,1.3
				c-0.9,0.9-1.3,2.2-1.3,4v12.2h-2.9v-19.8h2.9v2.2c0.7-0.8,1.5-1.4,2.5-1.8c0.9-0.4,2-0.6,3.1-0.6c2.1,0,3.8,0.6,5.1,1.9
				c1.4,1.3,2.1,3.2,2.1,5.5v12.7H557.6z"/>
			<path fill="#5E6E66" d="M580.2,273.1v-12.2c0-1.8-0.4-3.1-1.3-4c-0.9-0.9-2.1-1.3-3.6-1.3c-1.5,0-2.7,0.4-3.6,1.3
				c-0.9,0.9-1.3,2.2-1.3,4v12.2h-2.9v-19.8h2.9v2.2c0.7-0.8,1.5-1.4,2.5-1.8c0.9-0.4,2-0.6,3.1-0.6c2.1,0,3.8,0.6,5.1,1.9
				c1.4,1.3,2.1,3.2,2.1,5.5v12.7H580.2z"/>
			<path fill="#5E6E66" d="M592,263.9c0,2.2,0.5,3.9,1.5,5.1c1,1.2,2.4,1.8,4.4,1.8c1.2,0,2.1-0.2,2.9-0.5c0.8-0.4,1.5-0.9,2.3-1.7
				l2,1.7c-0.5,0.5-1,1-1.5,1.3c-0.5,0.4-1,0.7-1.6,0.9c-0.6,0.3-1.2,0.4-1.9,0.6c-0.7,0.1-1.4,0.2-2.3,0.2c-1.3,0-2.5-0.2-3.6-0.6
				c-1.1-0.4-2-1-2.7-1.9c-0.8-0.8-1.3-1.9-1.7-3.2c-0.4-1.3-0.6-2.8-0.6-4.5c0-3.3,0.7-5.8,2.2-7.5c1.5-1.8,3.4-2.6,6-2.6
				c2.6,0,4.6,0.9,6,2.6c1.4,1.7,2.1,4.1,2.1,7.1v1.3H592z M602.5,261.8c0-0.4-0.1-0.8-0.1-1c0-0.3-0.1-0.6-0.1-0.8
				c0-0.2-0.1-0.5-0.2-0.7c-0.1-0.2-0.2-0.5-0.3-0.7c-0.4-0.9-1-1.6-1.8-2.2c-0.8-0.5-1.7-0.8-2.8-0.8s-2,0.3-2.8,0.8
				c-0.8,0.5-1.4,1.3-1.8,2.2c-0.1,0.3-0.2,0.5-0.3,0.7c-0.1,0.2-0.1,0.5-0.2,0.7c0,0.2-0.1,0.5-0.1,0.8c0,0.3,0,0.6-0.1,1H602.5z"
				/>
			<path fill="#5E6E66" d="M622.8,273.1v-1.9c-0.8,0.8-1.6,1.3-2.5,1.7c-0.9,0.3-1.9,0.5-3.3,0.5c-1.4,0-2.5-0.1-3.3-0.4
				c-0.8-0.3-1.6-0.7-2.3-1.4c-0.5-0.5-0.9-1.1-1.1-1.8c-0.2-0.7-0.4-1.5-0.4-2.2c0-1.8,0.6-3.2,1.8-4.2c1.2-1,2.9-1.5,5.1-1.5h5.9
				v-1.9c0-1.5-0.4-2.5-1.1-3.3c-0.8-0.7-2.1-1.1-3.9-1.1c-1.3,0-2.3,0.2-3,0.5c-0.7,0.3-1.4,0.9-2,1.8l-2-1.8
				c0.9-1.2,1.8-1.9,2.9-2.4c1.1-0.4,2.5-0.6,4.1-0.6c2.7,0,4.7,0.6,6,1.7c1.3,1.1,2,2.8,2,4.9v13.5H622.8z M622.8,263.9h-5.5
				c-3,0-4.5,1.2-4.5,3.5c0,1.2,0.4,2,1.1,2.6c0.7,0.6,1.9,0.8,3.5,0.8c0.8,0,1.6-0.1,2.3-0.2c0.7-0.1,1.4-0.5,2.1-1.1
				c0.7-0.6,1-1.8,1-3.4V263.9z"/>
			<path fill="#5E6E66" d="M648.5,263.2c0,1.6-0.2,3.2-0.5,4.7s-1,2.7-2,3.8c-0.5,0.5-1.2,1-2.1,1.3c-0.8,0.3-1.8,0.5-2.8,0.5
				c-1.1,0-2.1-0.2-3-0.5c-0.9-0.3-1.8-1-2.6-2.1V282h-2.9v-28.7h2.9v2.3c0.8-1,1.7-1.7,2.6-2.1c0.9-0.3,1.9-0.5,3-0.5
				c1,0,1.9,0.2,2.8,0.5c0.8,0.3,1.5,0.7,2.1,1.3c0.5,0.5,0.9,1,1.2,1.7c0.3,0.6,0.6,1.3,0.7,2.1c0.2,0.7,0.3,1.5,0.4,2.3
				C648.5,261.6,648.5,262.4,648.5,263.2z M645.6,263.2c0-1-0.1-1.9-0.2-2.8s-0.3-1.7-0.7-2.4c-0.3-0.7-0.9-1.3-1.5-1.7
				c-0.7-0.4-1.5-0.6-2.6-0.6c-1.1,0-2,0.2-2.6,0.6c-0.6,0.4-1.1,1-1.5,1.7c-0.4,0.7-0.6,1.5-0.7,2.4c-0.1,0.9-0.2,1.9-0.2,2.8
				c0,1,0.1,1.9,0.2,2.8c0.1,0.9,0.3,1.7,0.7,2.4c0.4,0.7,0.9,1.3,1.5,1.7c0.6,0.4,1.5,0.6,2.6,0.6c1.1,0,1.9-0.2,2.6-0.6
				c0.7-0.4,1.2-1,1.5-1.7c0.3-0.7,0.6-1.5,0.7-2.4C645.6,265.1,645.6,264.1,645.6,263.2z"/>
			<path fill="#5E6E66" d="M669.9,263.2c0,1.5-0.2,3-0.5,4.3c-0.3,1.4-1,2.5-2,3.6c-0.7,0.7-1.5,1.2-2.5,1.7c-0.9,0.4-2,0.6-3.2,0.6
				c-1.2,0-2.3-0.2-3.2-0.6c-0.9-0.4-1.8-1-2.5-1.7c-0.5-0.5-0.9-1.1-1.2-1.7c-0.3-0.6-0.6-1.2-0.7-1.9c-0.2-0.7-0.3-1.3-0.4-2.1
				c-0.1-0.7-0.1-1.5-0.1-2.3c0-1.5,0.1-3,0.4-4.3c0.3-1.4,1-2.5,2-3.6c0.7-0.7,1.5-1.2,2.5-1.7c0.9-0.4,2-0.6,3.2-0.6
				c1.2,0,2.3,0.2,3.2,0.6s1.8,1,2.5,1.7c1,1,1.7,2.2,2,3.6C669.7,260.2,669.9,261.6,669.9,263.2z M667,263.2c0-1.1-0.1-2.2-0.2-3.4
				c-0.2-1.1-0.6-2-1.3-2.8c-1-1-2.2-1.5-3.6-1.5c-1.4,0-2.6,0.5-3.6,1.5c-0.7,0.7-1.2,1.6-1.4,2.8c-0.2,1.1-0.3,2.2-0.3,3.4
				c0,0.6,0,1.1,0,1.7c0,0.6,0.1,1.1,0.2,1.7c0.1,0.5,0.3,1,0.5,1.5c0.2,0.5,0.5,0.9,0.9,1.3c1,1,2.2,1.5,3.6,1.5
				c1.5,0,2.7-0.5,3.6-1.5c0.7-0.8,1.2-1.7,1.3-2.8C666.9,265.4,667,264.3,667,263.2z"/>
			<path fill="#5E6E66" d="M681,273.1c-1.7,0-3-0.5-3.8-1.5s-1.2-2.3-1.2-3.8v-23.4h2.9v23.3c0,1,0.2,1.7,0.6,2.2
				c0.4,0.5,1.1,0.7,2.1,0.7h1.6v2.5H681z"/>
			<path fill="#5E6E66" d="M687.8,247.6v-3.3h3.3v3.3H687.8z M687.9,273.1v-19.8h2.9v19.8H687.9z"/>
			<path fill="#5E6E66" d="M712.4,267.3c0,1.9-0.7,3.4-2.2,4.5c-1.5,1.1-3.4,1.6-5.8,1.6c-1.7,0-3.2-0.2-4.5-0.6
				c-1.3-0.4-2.5-1.2-3.6-2.2l1.9-1.9c0.8,0.8,1.7,1.4,2.7,1.8c1,0.4,2.2,0.5,3.4,0.5c1.7,0,3-0.3,3.9-0.9c0.9-0.6,1.4-1.5,1.4-2.6
				c0-0.9-0.3-1.6-0.8-2c-0.5-0.5-1.4-0.8-2.5-0.9l-3.3-0.3c-1.9-0.2-3.4-0.7-4.4-1.5c-1-0.9-1.5-2.1-1.5-3.8c0-0.9,0.2-1.7,0.5-2.4
				c0.4-0.7,0.9-1.3,1.5-1.8s1.4-0.9,2.3-1.1c0.9-0.3,1.9-0.4,2.9-0.4c1.5,0,2.8,0.2,4,0.5c1.2,0.3,2.3,0.9,3.2,1.6l-1.9,1.9
				c-0.7-0.5-1.5-0.9-2.4-1.2c-0.9-0.3-1.9-0.4-2.9-0.4c-1.5,0-2.6,0.3-3.3,0.9c-0.8,0.6-1.1,1.4-1.1,2.4c0,0.9,0.3,1.6,0.8,2
				c0.6,0.5,1.5,0.8,2.7,0.9l3.1,0.3c0.9,0.1,1.7,0.2,2.4,0.4c0.7,0.2,1.3,0.5,1.9,0.9c0.5,0.4,0.9,0.9,1.2,1.6
				C712.3,265.6,712.4,266.3,712.4,267.3z"/>
		</g>
		<g>
			<path fill="#5E6E66" d="M222.4,253.6l-0.5-0.4l-1.6,2.4l0.5,0.4c2.2,1.5,3.6,4,3.6,6.8c0,4.5-3.7,8.1-8.1,8.1s-8.1-3.7-8.1-8.1
				c0-2.7,1.3-5.2,3.6-6.8l0.5-0.4l-1.6-2.4l-0.5,0.4c-3,2.1-4.9,5.5-4.9,9.2c0,6.1,5,11,11,11c6.1,0,11-5,11-11
				C227.2,259.1,225.4,255.6,222.4,253.6z"/>
			<rect x="214.8" y="251.6" fill="#5E6E66" width="2.9" height="15.3"/>
		</g>
	</g>
</g>
</svg>
